HIERARCHY
ROOT root
{
	OFFSET	0	13.1	24.9
	CHANNELS 6  Xposition Yposition Zposition Xrotation Yrotation Zrotation
	JOINT spine_1
	{
		OFFSET	0	9.99999	0
		CHANNELS 3  Xrotation Yrotation Zrotation
		JOINT spine_2
		{
			OFFSET	0	112	-10
			CHANNELS 3  Xrotation Yrotation Zrotation
			JOINT spine_3
			{
				OFFSET	0	206.5	19.3
				CHANNELS 3  Xrotation Yrotation Zrotation
				JOINT spine_4
				{
					OFFSET	0	110.4	14.6
					CHANNELS 3  Xrotation Yrotation Zrotation
					JOINT neck_1
					{
						OFFSET	0	71.8	-50.3
						CHANNELS 3  Xrotation Yrotation Zrotation
						JOINT neck_2
						{
							OFFSET	0	86.2	-25.8
							CHANNELS 3  Xrotation Yrotation Zrotation
							JOINT head_ee
							{
								OFFSET	0	179.8	-8.7
								CHANNELS 3  Xrotation Yrotation Zrotation
								End Site
								{
									OFFSET	1	0	0
								}
							}
						}
					}
					JOINT left_clavicle
					{
						OFFSET	-43.2	22.4	-70.8
						CHANNELS 3  Xrotation Yrotation Zrotation
						JOINT left_shoulder
						{
							OFFSET	-93.9	-5.79999	48.7
							CHANNELS 3  Xrotation Yrotation Zrotation
							JOINT left_elbow
							{
								OFFSET	-291.4	-30.8	15.2
								CHANNELS 3  Xrotation Yrotation Zrotation
								JOINT left_lowarm_twist
								{
									OFFSET	-110.7	-3.89999	13.6
									CHANNELS 3  Xrotation Yrotation Zrotation
									JOINT left_hand
									{
										OFFSET	-110.7	-3.89999	13.6
										CHANNELS 3  Xrotation Yrotation Zrotation
										JOINT left_ee
										{
											OFFSET	-80.8	-5.10001	12.1
											CHANNELS 3  Xrotation Yrotation Zrotation
											End Site
											{
												OFFSET	1	0	0
											}
										}
									}
								}
							}
						}
					}
					JOINT right_clavicle
					{
						OFFSET	43.2	22.4	-70.8
						CHANNELS 3  Xrotation Yrotation Zrotation
						JOINT right_shoulder
						{
							OFFSET	93.9	-5.79999	48.7
							CHANNELS 3  Xrotation Yrotation Zrotation
							JOINT right_elbow
							{
								OFFSET	291.4	-30.8	15.2
								CHANNELS 3  Xrotation Yrotation Zrotation
								JOINT right_lowarm_twist
								{
									OFFSET	110.7	-3.89999	13.6
									CHANNELS 3  Xrotation Yrotation Zrotation
									JOINT right_hand
									{
										OFFSET	110.7	-3.89999	13.6
										CHANNELS 3  Xrotation Yrotation Zrotation
										JOINT right_ee
										{
											OFFSET	80.8	-5.10001	12.1
											CHANNELS 3  Xrotation Yrotation Zrotation
											End Site
											{
												OFFSET	1	0	0
											}
										}
									}
								}
							}
						}
					}
				}
			}
		}
	}
	JOINT left_hip
	{
		OFFSET	-82.8	-127.5	0.300001
		CHANNELS 3  Xrotation Yrotation Zrotation
		JOINT left_knee
		{
			OFFSET	-28.2	-396.7	2.2
			CHANNELS 3  Xrotation Yrotation Zrotation
			JOINT left_ankle
			{
				OFFSET	-11.7	-411.3	35.4
				CHANNELS 3  Xrotation Yrotation Zrotation
				JOINT left_toes
				{
					OFFSET	0	-60	-88.6
					CHANNELS 3  Xrotation Yrotation Zrotation
					JOINT left_foot_ee
					{
						OFFSET	-22.5	-16.5	-42.2
						CHANNELS 3  Xrotation Yrotation Zrotation
						End Site
						{
							OFFSET	1	0	0
						}
					}
				}
			}
		}
	}
	JOINT right_hip
	{
		OFFSET	82.8	-127.5	0.300001
		CHANNELS 3  Xrotation Yrotation Zrotation
		JOINT right_knee
		{
			OFFSET	28.2	-396.7	2.2
			CHANNELS 3  Xrotation Yrotation Zrotation
			JOINT right_ankle
			{
				OFFSET	11.7	-411.3	35.4
				CHANNELS 3  Xrotation Yrotation Zrotation
				JOINT right_toes
				{
					OFFSET	0	-60	-88.6
					CHANNELS 3  Xrotation Yrotation Zrotation
					JOINT right_foot_ee
					{
						OFFSET	22.5	-16.5	-42.2
						CHANNELS 3  Xrotation Yrotation Zrotation
						End Site
						{
							OFFSET	1	0	0
						}
					}
				}
			}
		}
	}
}
MOTION
Frames: 16
Frame Time: 0.02
2780.26949745 713.941 -1565.37676216 11.4151150184 81.3351460558 -7.29419970578 0.825425 -0.219399 -2.77877 0.82972 -0.0422036 -2.7871 0.832838 0.505097 -2.74131 0.822357 0.0659954 -2.78664 -12.5449 8.70469 6.19614 -12.5312 12.6129 8.44791 -0.0 0.0 -0.0 7.93756 4.915 15.3272 -19.7892 -42.7799 49.1375 1.28387 -32.4545 0.373675 -85.3703 -8.49819 5.17533 0.891655 18.254 12.8871 -0.0 0.0 -0.0 3.6198 11.205 -6.22093 -18.8402 16.0779 -57.2059 1.23508 31.4579 -0.347851 2.15404 -0.070899 0.26597 3.46865 26.2585 -11.2951 0.0 0.0 0.0 6.56126 -13.1106 3.29992 -12.5816 0.310258 1.90204 10.1103 24.9731 -1.50282 25.1208 -0.0 -0.0 -0.0 0.0 -0.0 17.6896 11.29 -1.88461 -45.1763 0.828476 -6.70718 -24.8133 -3.49503 -3.7469 -18.0844 0.0 0.0 0.0 0.0 0.0 
2782.56127549 713.941 -1556.99023628 13.2441167778 82.5218680388 -9.14139930586 0.825425 -0.219399 -2.77877 0.82972 -0.0422036 -2.7871 0.832838 0.505097 -2.74131 0.822357 0.0659954 -2.78664 -12.5449 8.70469 6.19614 -12.5312 12.6129 8.44791 -0.0 0.0 -0.0 7.93756 4.915 15.3272 -19.7892 -42.7799 49.1375 1.28387 -32.4545 0.373675 -85.3703 -8.49819 5.17533 0.891655 18.254 12.8871 -0.0 0.0 -0.0 3.6198 11.205 -6.22093 -18.8402 16.0779 -57.2059 1.23508 31.4579 -0.347851 2.15404 -0.070899 0.26597 3.46865 26.2585 -11.2951 0.0 0.0 0.0 6.56126 -13.1106 3.29992 -12.5816 0.310258 1.90204 10.1103 24.9731 -1.50282 25.1208 -0.0 -0.0 -0.0 0.0 -0.0 17.6896 11.29 -1.88461 -45.1763 0.828476 -6.70718 -24.8133 -3.49503 -3.7469 -18.0844 0.0 0.0 0.0 0.0 0.0 
2774.69123698 716.339 -1540.62584932 9.92107931915 85.1260405386 -5.77452834873 1.27697 -0.472341 -2.76142 1.28116 -0.295737 -2.78585 1.29633 0.233355 -2.79177 1.28552 -0.210304 -2.7936 -11.5415 8.53905 4.6064 -11.5681 13.1776 6.77749 -0.0 0.0 -0.0 8.16318 5.09 15.7526 -19.3421 -42.5686 48.294 1.41742 -35.0726 0.44792 -85.4496 -8.50808 5.17331 0.507697 18.8762 10.7368 -0.0 0.0 -0.0 3.23533 10.5474 -5.47236 -19.1983 16.9334 -58.5161 1.00563 26.4802 -0.236617 2.98595 -0.0955939 0.369363 3.26046 23.568 -11.3535 0.0 0.0 0.0 4.69266 -15.1908 3.9374 -9.86948 0.27885 1.48712 10.5811 27.4339 -1.59298 23.5805 -0.0 -0.0 -0.0 0.0 -0.0 23.4373 9.33307 -2.24149 -47.0765 0.977197 -6.95897 -23.6635 -2.74636 -3.57831 -21.0573 0.0 0.0 0.0 0.0 0.0 
2766.75486806 713.784 -1527.15054285 8.50698098331 87.11425856 -4.50829913687 1.60062 -0.848436 -2.77536 1.60466 -0.670186 -2.82367 1.63842 -0.145095 -2.89842 1.6272 -0.600841 -2.83922 -10.7798 8.44585 3.59499 -10.8206 13.5712 5.69674 -0.0 0.0 -0.0 8.79327 5.21545 16.9601 -20.2628 -42.1123 45.6581 1.52902 -37.139 0.513693 -85.1444 -8.46998 5.18101 0.135499 19.3384 8.64032 -0.0 0.0 -0.0 2.91233 9.50002 -4.88914 -20.7651 17.274 -59.5166 0.8484 22.7955 -0.171036 3.56864 -0.111995 0.441988 3.08348 21.315 -11.3318 0.0 0.0 0.0 3.44404 -16.6432 4.54582 -7.64673 0.238488 1.14844 10.991 28.8191 -1.66738 22.2249 -0.0 -0.0 -0.0 0.0 -0.0 31.3981 9.86977 -3.8721 -48.3989 1.0856 -7.13126 -22.9056 -2.28936 -3.46677 -23.1547 0.0 0.0 0.0 0.0 0.0 
2749.63903674 715.852 -1517.67035981 -16.1672962 87.6734240891 19.6439648815 1.86391 -0.731438 -2.76532 1.86799 -0.554063 -2.80622 1.89543 -0.0467813 -2.85996 1.88436 -0.497691 -2.81675 -10.4957 7.68121 3.86452 -10.5094 11.9128 5.72503 -0.0 0.0 -0.0 9.62693 5.77364 18.5407 -20.3258 -41.634 43.6802 1.621 -38.7613 0.57026 -85.4131 -8.50353 5.17424 -0.269076 19.8628 6.40676 -0.0 0.0 -0.0 2.2717 8.97307 -3.61356 -23.0202 16.3815 -60.7285 0.804322 21.7241 -0.154338 5.14142 -0.152566 0.638793 2.85255 18.4503 -11.1999 0.0 0.0 0.0 2.56033 -15.8462 5.44167 -4.87793 0.16988 0.729116 13.6515 28.5207 -2.04901 20.1454 -0.0 -0.0 -0.0 0.0 -0.0 34.5066 10.1446 -5.33006 -49.2517 1.15763 -7.24104 -18.2955 -3.14631 -2.76154 -24.1081 0.0 0.0 0.0 0.0 0.0 
2737.04204836 714.894 -1506.77665549 -41.0438719659 88.6384875152 44.675800074 2.04995 -0.658512 -2.81384 2.05423 -0.4782 -2.85 2.07802 0.0265354 -2.88968 2.06663 -0.42998 -2.85766 -10.2936 7.1428 4.06996 -10.2904 10.7347 5.76619 -0.0 0.0 -0.0 10.2524 6.15955 19.7309 -19.9074 -41.3953 42.1792 1.69792 -40.0639 0.619104 -85.5466 -8.52018 5.17082 -0.563944 20.2571 4.80602 -0.0 0.0 -0.0 1.93668 8.535 -2.96516 -24.4922 15.8939 -61.9385 0.774298 20.985 -0.143405 6.24197 -0.177733 0.777125 2.69649 16.4021 -11.1267 0.0 0.0 0.0 1.08951 -15.2582 5.30234 -2.95338 0.110284 0.439782 15.5142 28.3753 -2.3113 18.678 -0.0 -0.0 -0.0 0.0 -0.0 37.2291 10.7289 -5.63708 -48.9442 1.13146 -7.20157 -15.0101 -3.71439 -2.25863 -24.7739 0.0 0.0 0.0 0.0 0.0 
2725.61791166 717.336 -1507.92839109 -34.0065839928 87.7463081797 37.8980378179 2.27932 -0.584515 -2.90819 2.28394 -0.398357 -2.93945 2.304 0.109179 -2.96429 2.29192 -0.360138 -2.94437 -10.1514 6.77539 4.22276 -10.1373 9.92179 5.80914 -0.0 0.0 -0.0 10.6207 6.42072 20.4298 -19.4343 -41.1598 40.8909 1.75858 -41.057 0.658549 -85.5997 -8.5268 5.16945 -0.777117 20.5558 3.66544 -0.0 0.0 -0.0 1.68177 8.25294 -2.46918 -25.5466 15.5693 -62.7758 0.749276 20.3634 -0.134571 7.01186 -0.193757 0.874166 2.58778 14.9306 -11.0787 0.0 0.0 0.0 -0.201092 -14.8297 4.66838 -1.72282 0.0670933 0.255871 16.8169 28.2694 -2.49175 17.6517 -0.0 -0.0 -0.0 0.0 -0.0 39.2991 11.393 -5.23685 -48.173 1.06681 -7.102 -12.6739 -4.06727 -1.90185 -25.2277 0.0 0.0 0.0 0.0 0.0 
2705.95013629 716.801 -1511.42745781 -14.1511854734 86.6337887791 18.0842230131 2.35039 -0.535635 -2.81549 2.35473 -0.355467 -2.84384 2.37191 0.131768 -2.86292 2.36062 -0.321844 -2.84784 -10.0794 6.45127 4.36745 -10.0566 9.2043 5.86245 -0.0 0.0 -0.0 10.8811 6.607 20.9242 -18.7051 -41.1299 40.511 1.82972 -42.1847 0.705801 -85.2169 -8.47903 5.1792 -0.92754 20.7686 2.86688 -0.0 0.0 -0.0 1.45002 7.22352 -2.09654 -27.0046 15.1948 -63.4157 0.673001 18.4377 -0.109231 7.38599 -0.201072 0.921397 2.47986 13.216 -11.1333 0.0 0.0 0.0 -1.07829 -14.5147 4.24608 -2.88056 0.107839 0.428873 16.57 28.2871 -2.4577 16.679 -0.0 -0.0 -0.0 0.0 -0.0 40.5686 11.1111 -4.19006 -40.1464 0.476109 -6.01877 -11.0133 -3.29911 -1.65139 -26.6369 0.0 0.0 0.0 0.0 0.0 
2691.55663766 713.603 -1513.02587797 -21.6703486088 85.7463384614 25.8226218361 2.58099 -0.511936 -2.82861 2.58539 -0.330982 -2.85543 2.60111 0.146403 -2.8708 2.58974 -0.308635 -2.85793 -10.0625 6.20346 4.44108 -10.0347 8.68524 5.87062 -0.0 0.0 -0.0 10.9045 7.06835 20.9199 -17.5225 -41.0273 39.872 1.90898 -43.3954 0.759646 -84.9699 -8.44816 5.18532 -1.04435 20.9698 2.2653 -0.0 0.0 -0.0 1.28735 6.48634 -1.83971 -28.0974 14.9242 -63.9009 0.619915 17.0712 -0.0930415 7.63662 -0.2058 0.953064 2.40001 11.9117 -11.1788 0.0 0.0 0.0 -1.37265 -14.1367 4.69507 -3.68747 0.134164 0.549912 16.5441 28.2569 -2.4536 16.0422 -0.0 -0.0 -0.0 0.0 -0.0 41.3598 10.5422 -3.96007 -34.476 0.153231 -5.20975 -9.61862 -2.70895 -1.44107 -27.5314 0.0 0.0 0.0 0.0 0.0 
2673.73032544 717.42 -1520.87017281 -25.6141204433 84.8496216182 29.477462905 2.71824 -0.47811 -2.71677 2.7223 -0.304333 -2.74166 2.73598 0.147374 -2.75455 2.72551 -0.289338 -2.74328 -10.2054 6.00209 4.46654 -10.1756 8.30482 5.85393 -0.0 0.0 -0.0 11.0166 7.42901 21.0991 -15.7967 -40.9341 40.55 1.96865 -44.2761 0.800975 -84.8051 -8.42755 5.18933 -1.14386 21.3524 1.84743 -0.0 0.0 -0.0 1.17821 6.06331 -1.66174 -28.8101 14.7853 -64.3486 0.5603 15.5125 -0.0763161 7.89755 -0.210575 0.986054 2.31649 10.7212 -11.139 0.0 0.0 0.0 -1.45847 -13.858 5.23459 -4.20196 0.150057 0.62727 16.5207 28.1593 -2.44876 15.559 -0.0 -0.0 -0.0 0.0 -0.0 42.0137 10.1292 -3.94898 -30.3712 -0.0296695 -4.60659 -8.29504 -2.31839 -1.24125 -28.0322 0.0 0.0 0.0 0.0 0.0 
2661.72423288 707.369 -1519.15125185 -38.0214850381 85.2121743069 41.3422630909 2.91274 -0.372216 -2.63904 2.91659 -0.203594 -2.65736 2.92496 0.224332 -2.65569 2.91517 -0.197748 -2.6578 -10.2771 6.08194 4.06946 -10.2596 8.7308 5.49403 -0.0 0.0 -0.0 10.9885 7.68063 21.0145 -13.7216 -40.7206 41.6101 2.19353 -47.3706 0.962317 -84.8758 -8.43639 5.18762 -1.32973 22.3251 1.19388 -0.0 0.0 -0.0 0.93004 5.65055 -1.20369 -29.5313 14.5496 -65.0192 0.518981 14.418 -0.0656458 8.14495 -0.214963 1.01735 2.18346 8.82785 -11.0594 0.0 0.0 0.0 -1.61436 -12.9847 5.71597 -4.56075 0.160729 0.6813 16.1353 27.9164 -2.39122 14.9302 -0.0 -0.0 -0.0 0.0 -0.0 42.4559 10.25 -3.36665 -21.4135 -0.276162 -3.25538 -7.28091 -2.00016 -1.08841 -28.4971 0.0 0.0 0.0 0.0 0.0 
2608.75724796 691.995 -1527.85912974 -74.9477747044 84.0887708527 77.023897297 3.74084 -0.355649 -2.48652 3.74426 -0.196756 -2.50409 3.75112 0.170399 -2.50602 3.74243 -0.227392 -2.5015 -8.78195 8.01568 5.97041 -8.71218 10.8695 7.70304 -0.0 0.0 -0.0 10.4404 8.09876 19.9025 -7.23778 -35.7946 45.8632 2.58964 -52.054 1.26473 -84.963 -8.44731 5.18549 -1.6 23.624 0.227452 -0.0 0.0 -0.0 0.496114 4.06154 -0.505907 -32.0894 13.8052 -67.4119 0.415254 11.6241 -0.0422683 7.20222 -0.197517 0.898192 1.83601 -0.72437 -12.6507 0.0 0.0 0.0 -1.23529 -9.87522 6.01863 -4.73269 0.165722 0.707215 19.2072 27.2534 -2.80137 12.8738 -0.0 -0.0 -0.0 0.0 -0.0 41.4291 10.6449 -1.83057 -3.44383 -0.126395 -0.513328 -0.785299 0.946003 -0.116698 -26.6705 0.0 0.0 0.0 0.0 0.0 
2528.50632886 675.518 -1527.3890367 -108.27078187 83.7962641424 108.096955421 3.89753 -0.490779 -1.88839 3.89944 -0.369644 -1.91578 3.91076 -0.0919805 -1.94894 3.90568 -0.398568 -1.90998 -8.83977 10.9652 8.79832 -8.67677 14.4523 11.1411 -0.0 0.0 -0.0 9.07861 8.21955 17.2991 -5.41947 -33.3845 50.3702 3.19484 -57.7002 1.76033 -85.1553 -8.47133 5.18074 -1.73526 23.7078 -0.506216 -0.0 0.0 -0.0 0.499711 0.552686 -0.902083 -35.0826 16.0515 -67.7676 0.536972 14.8959 -0.0701981 5.58247 -0.162971 0.694173 2.06766 -11.8762 -18.3382 0.0 0.0 0.0 -6.51702 -8.40559 7.76422 -8.4894 0.255336 1.27666 19.561 25.3929 -2.81709 14.4852 -0.0 -0.0 -0.0 0.0 -0.0 39.9775 11.4122 2.85676 0.789122 0.0332982 0.116516 -13.5355 5.35292 -2.089 -20.7 0.0 0.0 0.0 0.0 0.0 
2526.56195148 675.518 -1536.5866008 -100.920021071 84.0011470192 100.704446896 3.89753 -0.490779 -1.88839 3.89944 -0.369644 -1.91578 3.91076 -0.0919805 -1.94894 3.90568 -0.398568 -1.90998 -8.83977 10.9652 8.79832 -8.67677 14.4523 11.1411 -0.0 0.0 -0.0 9.07861 8.21955 17.2991 -5.41947 -33.3845 50.3702 3.19484 -57.7002 1.76033 -85.1553 -8.47133 5.18074 -1.73526 23.7078 -0.506216 -0.0 0.0 -0.0 0.499711 0.552686 -0.902083 -35.0826 16.0515 -67.7676 0.536972 14.8959 -0.0701981 5.58247 -0.162971 0.694173 2.06766 -11.8762 -18.3382 0.0 0.0 0.0 -6.51702 -8.40559 7.76422 -8.4894 0.255336 1.27666 19.561 25.3929 -2.81709 14.4852 -0.0 -0.0 -0.0 0.0 -0.0 39.9775 11.4122 2.85676 0.789122 0.0332982 0.116516 -13.5355 5.35292 -2.089 -20.7 0.0 0.0 0.0 0.0 0.0 
2525.66573044 675.518 -1541.05786453 -97.2013473396 84.0631610463 96.9655245056 3.89753 -0.490779 -1.88839 3.89944 -0.369644 -1.91578 3.91076 -0.0919805 -1.94894 3.90568 -0.398568 -1.90998 -8.83977 10.9652 8.79832 -8.67677 14.4523 11.1411 -0.0 0.0 -0.0 9.07861 8.21955 17.2991 -5.41947 -33.3845 50.3702 3.19484 -57.7002 1.76033 -85.1553 -8.47133 5.18074 -1.73526 23.7078 -0.506216 -0.0 0.0 -0.0 0.499711 0.552686 -0.902083 -35.0826 16.0515 -67.7676 0.536972 14.8959 -0.0701981 5.58247 -0.162971 0.694173 2.06766 -11.8762 -18.3382 0.0 0.0 0.0 -6.51702 -8.40559 7.76422 -8.4894 0.255336 1.27666 19.561 25.3929 -2.81709 14.4852 -0.0 -0.0 -0.0 0.0 -0.0 39.9775 11.4122 2.85676 0.789122 0.0332982 0.116516 -13.5355 5.35292 -2.089 -20.7 0.0 0.0 0.0 0.0 0.0 
2505.92222737 665.324 -1536.06487142 -122.78901594 84.5206379389 121.254694709 3.66876 -0.557359 -1.71781 3.67029 -0.446938 -1.74978 3.68323 -0.185114 -1.79644 3.67903 -0.466461 -1.74468 -10.3499 11.6831 9.2876 -10.2036 15.8218 11.9548 -0.0 0.0 -0.0 8.71647 8.13632 16.6261 -5.78961 -33.5652 51.5796 3.4303 -59.5094 1.96135 -84.975 -8.4488 5.1852 -1.73546 23.2974 -0.700134 -0.0 0.0 -0.0 0.513846 -0.0788962 -0.998987 -35.768 16.8278 -67.2697 0.610157 16.8178 -0.0901976 5.38255 -0.158307 0.669061 2.09939 -14.92 -19.5449 0.0 0.0 0.0 -7.54148 -8.17169 8.95202 -8.97139 0.264124 1.35009 18.9025 25.189 -2.72633 15.4526 -0.0 -0.0 -0.0 0.0 -0.0 38.6387 11.6437 3.62034 -1.39056 -0.0547537 -0.206372 -20.1845 6.57044 -3.14572 -18.0075 0.0 0.0 0.0 0.0 0.0 
